<svg xmlns="http://www.w3.org/2000/svg" width="384" height="384" viewBox="0 0 0 0 384 0 384"><path d="M372 271c-3.532 0-6.697 1.535-8.893 3.963h-73.145V111.037h72.331c2.181 3.003 5.71 4.963 9.706 4.963 6.628 0 12-5.372 12-12s-5.372-12-12-12c-3.568 0-6.763 1.565-8.961 4.037h-73.076V20.96C292.435 18.763 294 15.568 294 12c0-6.628-5.372-12-12-12s-12 5.372-12 12c0 3.995 1.96 7.524 4.963 9.706v74.331H111.037V21.359a11.969 11.969 0 0 0 4.5-9.359c0-6.628-5.372-12-12-12s-12 5.372-12 12c0 3.788 1.759 7.16 4.5 9.359v74.678H20.961C18.763 93.565 15.568 92 12 92c-6.628 0-12 5.372-12 12s5.372 12 12 12c3.996 0 7.525-1.96 9.706-4.963h74.331v163.926H20.893C18.697 272.535 15.532 271 12 271c-6.628 0-12 5.372-12 12s5.372 12 12 12c4.029 0 7.585-1.992 9.762-5.037h74.275v72.678a11.969 11.969 0 0 0-4.5 9.359c0 6.628 5.372 12 12 12s12-5.372 12-12c0-3.788-1.759-7.16-4.5-9.359v-72.678h163.926v72.331C271.96 364.476 270 368.005 270 372c0 6.628 5.372 12 12 12s12-5.372 12-12c0-3.568-1.565-6.763-4.037-8.96v-73.077h72.275C364.415 293.008 367.97 295 372 295c6.628 0 12-5.372 12-12s-5.372-12-12-12zm-201.321-55.679v-44.643h44.643v44.643h-44.643zm44.642 15v44.642h-44.643v-44.642h44.643zm-104.284-59.642h44.642v44.643h-44.642v-44.643zm59.642-15v-44.642h44.643v44.642h-44.643zm59.642 15h44.642v44.643h-44.642v-44.643zm44.642-15h-44.642v-44.642h44.642v44.642zm-119.284-44.642v44.642h-44.642v-44.642h44.642zm-44.642 119.284h44.642v44.642h-44.642v-44.642zm119.284 44.642v-44.642h44.642v44.642h-44.642z" fill="#127BB9"/></svg>