<?xml version="1.0" standalone="no"?>
<!DOCTYPE svg PUBLIC "-//W3C//DTD SVG 20010904//EN"
 "http://www.w3.org/TR/2001/REC-SVG-20010904/DTD/svg10.dtd">
<svg version="1.0" xmlns="http://www.w3.org/2000/svg"
 width="600.000000pt" height="600.000000pt" viewBox="0 0 600.000000 600.000000"
 preserveAspectRatio="xMidYMid meet">
<metadata>
Created by potrace 1.11, written by Peter Selinger 2001-2013
</metadata>
<g transform="translate(0.000000,600.000000) scale(0.100000,-0.100000)"
fill="#000000" stroke="none">
<path d="M1350 5941 c-54 -17 -240 -117 -345 -186 -506 -331 -846 -820 -965
-1390 -59 -284 -50 -626 24 -915 52 -206 164 -455 277 -615 115 -162 304 -335
447 -410 29 -15 54 -31 57 -35 3 -5 -25 -60 -63 -122 -235 -389 -394 -764
-485 -1138 -87 -356 -81 -701 16 -883 115 -217 362 -236 583 -45 304 262 531
796 601 1413 27 239 24 911 -5 1183 l-20 193 69 92 c38 50 69 94 69 98 0 11
175 147 270 209 130 85 341 187 415 201 34 6 113 9 185 6 150 -6 256 -37 364
-108 76 -49 179 -168 222 -256 25 -51 36 -136 20 -162 -7 -11 -84 15 -263 88
-57 23 -133 48 -170 56 -82 18 -301 20 -375 4 -113 -24 -228 -108 -263 -191
-41 -101 5 -222 136 -358 107 -111 159 -122 578 -124 l328 -1 69 -35 c84 -43
127 -96 145 -177 7 -32 14 -60 15 -62 2 -2 17 7 35 19 37 27 69 94 94 200 28
119 42 141 100 163 78 29 342 93 542 130 l181 34 39 -51 c94 -124 268 -274
394 -341 l66 -35 -94 -157 c-260 -434 -442 -908 -503 -1305 -24 -161 -22 -427
4 -538 35 -142 95 -234 188 -286 48 -26 62 -29 143 -29 81 0 97 3 159 32 242
115 460 428 613 878 156 461 199 1096 124 1839 l-17 170 80 95 c44 53 180 195
302 317 180 179 224 228 233 260 15 53 14 74 -4 80 -28 11 -61 -5 -161 -79
-106 -79 -221 -188 -377 -356 -87 -93 -97 -101 -101 -80 -3 13 -16 130 -30
259 -59 559 -79 900 -80 1365 0 454 21 649 95 883 44 138 46 158 23 191 -25
35 -84 24 -217 -41 -297 -146 -601 -399 -810 -675 -139 -185 -244 -383 -318
-602 -165 -494 -133 -1075 82 -1503 l39 -78 -42 -31 c-97 -70 -189 -100 -378
-123 -74 -10 -145 -18 -158 -19 -22 -2 -27 9 -68 143 -83 266 -153 408 -258
518 -88 93 -289 213 -417 248 -91 26 -315 25 -424 0 -240 -56 -496 -176 -818
-383 -54 -35 -101 -63 -106 -63 -9 0 -13 26 -41 300 -41 406 -58 677 -67 1085
-10 486 18 795 93 1026 37 115 45 179 24 204 -13 16 -58 18 -100 6z m-46 -197
c3 -8 -25 -90 -64 -182 -175 -423 -253 -789 -267 -1262 -9 -307 17 -656 92
-1263 l35 -279 -87 -128 c-80 -118 -88 -128 -107 -118 -36 19 -161 151 -205
217 -129 191 -223 492 -268 861 -25 210 -25 690 0 850 36 222 85 399 161 575
91 212 188 361 334 509 164 167 354 278 376 220z m3884 -6 c2 -9 -24 -79 -56
-156 -106 -248 -188 -526 -231 -784 -36 -217 -45 -346 -44 -623 0 -335 17
-538 94 -1163 l32 -254 -88 -128 -88 -129 -30 21 c-99 70 -206 210 -276 360
-113 240 -173 512 -201 908 -51 737 129 1347 513 1738 161 164 362 277 375
210z m-2453 -2714 c71 -33 149 -90 213 -155 50 -51 62 -70 62 -96 0 -29 -4
-33 -37 -42 -55 -16 -201 -13 -284 4 -103 22 -182 60 -229 111 -88 96 -78 147
38 190 51 20 185 13 237 -12z m-1601 -556 c13 -79 52 -496 67 -718 22 -325 0
-702 -52 -905 -37 -144 -120 -297 -200 -370 -89 -80 -221 -111 -311 -72 -134
57 -175 384 -97 772 54 270 153 541 312 855 98 194 256 469 269 470 4 0 10
-15 12 -32z m3886 15 c0 -10 9 -101 19 -203 44 -421 54 -618 48 -908 -7 -358
-37 -532 -122 -709 -96 -197 -250 -302 -403 -274 -75 14 -124 77 -158 202 -27
97 -25 345 5 504 79 429 246 837 533 1308 58 95 78 115 78 80z"/>
</g>
</svg>
