<?xml version="1.0" standalone="no"?>
<!DOCTYPE svg PUBLIC "-//W3C//DTD SVG 20010904//EN"
 "http://www.w3.org/TR/2001/REC-SVG-20010904/DTD/svg10.dtd">
<svg version="1.0" xmlns="http://www.w3.org/2000/svg"
 width="200.000000pt" height="200.000000pt" viewBox="0 0 200.000000 200.000000"
 preserveAspectRatio="xMidYMid meet">
<metadata>
Created by potrace 1.11, written by Peter Selinger 2001-2013
</metadata>
<g transform="translate(0.000000,200.000000) scale(0.100000,-0.100000)"
fill="#000000" stroke="none">
<path d="M492 1685 c-80 -40 -170 -129 -214 -211 -100 -185 -68 -411 80 -574
l54 -60 -40 -78 c-97 -186 -118 -397 -46 -469 22 -21 32 -25 66 -20 136 18
253 323 233 608 l-6 97 55 26 c66 31 76 32 76 5 0 -34 18 -58 63 -81 35 -19
59 -22 139 -23 l97 0 3 -45 c2 -37 6 -45 23 -45 16 0 23 11 33 57 l14 56 65
12 c89 15 115 7 172 -52 l48 -51 -43 -81 c-101 -193 -122 -389 -48 -463 21
-21 32 -25 66 -20 67 9 128 80 174 205 45 119 57 196 58 366 l1 158 50 45 c27
25 75 63 107 85 56 37 71 62 46 71 -20 7 -81 -28 -148 -84 -34 -28 -63 -49
-65 -47 -2 1 -9 48 -15 103 -18 147 -16 334 4 438 9 48 14 93 10 98 -9 15 -60
6 -120 -22 -63 -29 -183 -149 -218 -216 -69 -138 -74 -303 -12 -434 l22 -46
-61 -6 c-33 -3 -68 -9 -78 -12 -14 -6 -17 -2 -17 21 0 47 -21 152 -34 170 -14
19 -47 15 -80 -9 -19 -14 -19 -15 1 -48 11 -19 24 -45 28 -58 l7 -24 -35 22
c-96 59 -228 58 -378 -3 -13 -6 -17 13 -29 131 -17 181 -16 328 4 436 9 48 14
92 11 97 -11 19 -52 10 -123 -25z m30 -147 c-40 -117 -45 -145 -50 -245 -3
-78 0 -147 13 -227 l17 -116 -26 -30 -25 -31 -35 53 c-115 175 -111 442 9 623
36 53 98 105 126 105 13 0 8 -23 -29 -132z m1011 65 c-73 -189 -90 -347 -58
-542 l17 -109 -23 -31 c-26 -36 -35 -32 -73 33 -52 89 -70 162 -70 291 0 105
4 129 27 194 43 122 133 231 189 231 15 0 14 -7 -9 -67z m-545 -599 c49 -29
52 -39 16 -48 -28 -7 -72 -1 -116 16 -30 11 -40 52 -15 61 20 9 70 -4 115 -29z
m-461 -191 c25 -175 -5 -360 -68 -422 -34 -34 -55 -38 -85 -17 -16 12 -19 26
-18 98 0 116 40 234 117 350 18 27 35 48 39 48 4 0 10 -26 15 -57z m995 -133
c1 -171 -31 -272 -100 -309 -70 -38 -103 63 -67 204 19 72 72 187 117 252 l32
48 9 -35 c4 -19 8 -91 9 -160z"/>
</g>
</svg>
